<?xml version="1.0" standalone="no"?>
<!DOCTYPE svg PUBLIC "-//W3C//DTD SVG 20010904//EN"
 "http://www.w3.org/TR/2001/REC-SVG-20010904/DTD/svg10.dtd">
<svg version="1.0" xmlns="http://www.w3.org/2000/svg"
 width="982.000000pt" height="982.000000pt" viewBox="0 0 982.000000 982.000000"
 preserveAspectRatio="xMidYMid meet">
<metadata>
Created by potrace 1.11, written by Peter Selinger 2001-2013
</metadata>
<g transform="translate(0.000000,982.000000) scale(0.100000,-0.100000)"
fill="#000000" stroke="none">
<path d="M7829 9302 c-307 -368 -714 -891 -742 -951 -27 -60 -20 -133 37 -431
25 -129 46 -241 46 -250 0 -11 -170 -223 -213 -267 -3 -2 -29 17 -59 44 -150
136 -535 379 -813 513 -412 198 -860 325 -1332 376 -199 21 -562 21 -755 0
-580 -65 -1146 -234 -1560 -466 -135 -77 -396 -241 -501 -317 -168 -121 -595
-520 -611 -571 -4 -10 -15 -23 -25 -28 -60 -29 -387 -503 -531 -769 -56 -104
-110 -215 -120 -245 -10 -30 -27 -77 -38 -105 -78 -189 -117 -308 -166 -498
-105 -412 -125 -552 -133 -948 -11 -532 50 -929 218 -1414 122 -355 262 -620
552 -1045 195 -285 193 -283 577 -646 177 -167 496 -392 747 -527 166 -90 229
-118 448 -202 545 -211 1050 -304 1575 -292 375 9 552 32 915 122 676 166
1278 506 1870 1054 80 74 388 462 500 631 368 554 570 1099 661 1782 25 190
30 576 9 783 -44 445 -151 873 -317 1264 -134 318 -388 734 -599 983 l-32 37
128 136 c121 129 130 136 159 131 125 -23 532 -53 586 -43 29 6 79 51 275 244
132 131 364 348 515 482 151 134 275 249 275 254 0 33 -396 101 -1005 175
l-144 17 -131 530 c-159 642 -144 585 -153 585 -4 0 -55 -58 -113 -128z
m-3119 -2167 c325 -42 718 -175 1026 -348 193 -108 450 -289 438 -308 -13 -21
-896 -1065 -908 -1073 -8 -6 -36 9 -87 46 -247 182 -526 278 -808 278 -216 0
-363 -30 -562 -115 -134 -58 -343 -190 -406 -257 l-22 -23 247 -192 c136 -105
372 -288 525 -407 165 -128 284 -213 290 -209 7 4 82 62 167 128 85 67 463
362 840 655 377 294 885 689 1129 879 598 467 639 498 616 471 -11 -14 -135
-151 -275 -305 -140 -155 -263 -291 -274 -303 -18 -21 -18 -22 51 -124 248
-365 401 -751 473 -1191 97 -594 -11 -1231 -302 -1777 -443 -833 -1274 -1396
-2208 -1495 -645 -69 -1360 106 -1895 465 -672 451 -1104 1123 -1227 1911 -19
126 -22 183 -23 459 0 323 4 374 46 590 44 223 148 508 262 720 148 275 422
634 608 797 256 223 552 411 836 529 226 94 485 168 625 179 46 3 135 13 198
21 63 8 140 16 170 18 91 6 338 -4 450 -19z"/>
<path d="M3206 5124 c-99 -138 -182 -328 -222 -509 -24 -110 -29 -349 -10
-481 46 -314 172 -562 400 -789 218 -217 425 -327 746 -397 251 -54 576 -11
827 111 404 196 676 549 775 1005 29 132 31 410 5 526 -39 168 -99 336 -118
325 -5 -4 -240 -259 -522 -568 -613 -672 -739 -809 -742 -805 -3 4 -362 555
-763 1173 -168 259 -308 474 -312 479 -5 4 -33 -27 -64 -70z"/>
</g>
</svg>
